<svg id="Calque_1" data-name="Calque 1" xmlns="http://www.w3.org/2000/svg" viewBox="0 0 350.75 82.69"><defs><style>.cls-1{fill:#b3b3b3;}.cls-2{fill:#00aced;}.cls-3{fill:#8a3ab9;}.cls-4{fill:#dd4b39;}.cls-5{fill:#fff;}.cls-6{fill:#3b5998;}.cls-7{fill:#96c13e;}.cls-8{fill:#b4009e;}</style></defs><title>Plan de travail 1</title><path class="cls-1" d="M72.89,15.64c0,.19,0,.38,0,.57C72.9,22,68,28.64,59.1,28.64a14.88,14.88,0,0,1-7.45-2,11.4,11.4,0,0,0,1.18.05,10.41,10.41,0,0,0,6-1.87,4.81,4.81,0,0,1-4.54-3,6.86,6.86,0,0,0,.92.07,5.32,5.32,0,0,0,1.27-.15,4.5,4.5,0,0,1-3.88-4.29v-.05a5.21,5.21,0,0,0,2.19.55,4.25,4.25,0,0,1-2.16-3.63,4,4,0,0,1,.66-2.21,14.32,14.32,0,0,0,10,4.57,4.15,4.15,0,0,1-.12-1A4.62,4.62,0,0,1,68,11.32a5.1,5.1,0,0,1,3.54,1.38,10.2,10.2,0,0,0,3.08-1,4.49,4.49,0,0,1-2.13,2.4,10.35,10.35,0,0,0,2.79-.67,10.09,10.09,0,0,1-2.43,2.26Z"/><path class="cls-1" d="M106.51,14.51A5.46,5.46,0,1,0,112,20,5.45,5.45,0,0,0,106.51,14.51Zm0,9A3.55,3.55,0,1,1,110.06,20a3.56,3.56,0,0,1-3.55,3.55Zm7-9.23A1.28,1.28,0,1,1,112.19,13,1.27,1.27,0,0,1,113.47,14.29Zm3.61,1.29a6.29,6.29,0,0,0-1.72-4.46A6.28,6.28,0,0,0,110.9,9.4c-1.76-.1-7-.1-8.79,0a6.35,6.35,0,0,0-4.46,1.71,6.36,6.36,0,0,0-1.72,4.47c-.1,1.75-.1,7,0,8.78a6.32,6.32,0,0,0,1.72,4.47,6.4,6.4,0,0,0,4.46,1.72c1.76.1,7,.1,8.79,0a6.36,6.36,0,0,0,4.46-1.72,6.32,6.32,0,0,0,1.72-4.47c.1-1.76.1-7,0-8.78Zm-2.27,10.67a3.58,3.58,0,0,1-2,2c-1.41.56-4.73.43-6.28.43s-4.88.13-6.28-.43a3.55,3.55,0,0,1-2-2c-.56-1.4-.43-4.73-.43-6.28s-.12-4.88.43-6.28a3.61,3.61,0,0,1,2-2c1.4-.56,4.73-.43,6.28-.43s4.88-.12,6.28.43a3.58,3.58,0,0,1,2,2c.56,1.41.43,4.73.43,6.28S115.37,24.85,114.81,26.25Z"/><path class="cls-1" d="M152.46,18.63a7.33,7.33,0,0,1,.14,1.42c0,4.88-3.28,8.34-8.2,8.34a8.54,8.54,0,0,1,0-17.07,8.14,8.14,0,0,1,5.72,2.24l-2.32,2.22a4.81,4.81,0,0,0-3.4-1.31,5.39,5.39,0,0,0,0,10.78,4.61,4.61,0,0,0,4.84-3.68H144.4V18.63Zm8.24.29V16.44h-2.49v2.48h-2.48v2.49h2.48v2.48h2.49V21.41h2.47V18.92Z"/><path class="cls-1" d="M201.8,12H184.49a2,2,0,0,0-2,2V26a2,2,0,0,0,2,2H201.8a2,2,0,0,0,2-2V14A2,2,0,0,0,201.8,12Zm0,2v1.69c-.93.76-2.42,1.95-5.6,4.44-.7.55-2.09,1.87-3.06,1.86s-2.35-1.31-3-1.86c-3.18-2.49-4.67-3.67-5.6-4.44V14ZM184.49,26V18.25c.95.76,2.3,1.82,4.36,3.44.91.72,2.51,2.3,4.29,2.29s3.36-1.55,4.29-2.29c2.07-1.62,3.42-2.68,4.37-3.44V26Z"/><path class="cls-2" d="M72.89,58.26c0,.19,0,.38,0,.57,0,5.78-4.88,12.43-13.8,12.43a14.78,14.78,0,0,1-7.45-2,11.37,11.37,0,0,0,1.18.06,10.41,10.41,0,0,0,6-1.87,4.83,4.83,0,0,1-4.54-3,6.86,6.86,0,0,0,.92.07,5.88,5.88,0,0,0,1.27-.15,4.51,4.51,0,0,1-3.88-4.29V60a5.36,5.36,0,0,0,2.19.55A4.25,4.25,0,0,1,52.65,57a4,4,0,0,1,.66-2.2,14.32,14.32,0,0,0,10,4.57,4.21,4.21,0,0,1-.12-1A4.62,4.62,0,0,1,68,54a5.06,5.06,0,0,1,3.54,1.38,10.21,10.21,0,0,0,3.08-1.06,4.47,4.47,0,0,1-2.13,2.41A10.36,10.36,0,0,0,75.32,56a9.89,9.89,0,0,1-2.43,2.26Z"/><path class="cls-3" d="M106.51,57.14A5.46,5.46,0,1,0,112,62.6,5.45,5.45,0,0,0,106.51,57.14Zm0,9a3.55,3.55,0,1,1,3.55-3.55,3.56,3.56,0,0,1-3.55,3.55Zm7-9.24a1.28,1.28,0,1,1-1.28-1.27A1.28,1.28,0,0,1,113.47,56.91Zm3.61,1.3A5.9,5.9,0,0,0,110.9,52c-1.76-.1-7-.1-8.79,0a5.9,5.9,0,0,0-6.18,6.18c-.1,1.76-.1,7,0,8.79a5.9,5.9,0,0,0,6.18,6.18c1.76.1,7,.1,8.79,0A5.9,5.9,0,0,0,117.08,67c.1-1.76.1-7,0-8.78Zm-2.27,10.66a3.6,3.6,0,0,1-2,2c-1.41.55-4.73.43-6.28.43s-4.88.12-6.28-.43a3.57,3.57,0,0,1-2-2c-.56-1.4-.43-4.72-.43-6.27s-.12-4.88.43-6.28a3.58,3.58,0,0,1,2-2c1.4-.56,4.73-.43,6.28-.43s4.88-.13,6.28.43a3.55,3.55,0,0,1,2,2c.56,1.4.43,4.73.43,6.28S115.37,67.48,114.81,68.87Z"/><path class="cls-4" d="M152.46,61.26a7.33,7.33,0,0,1,.14,1.42c0,4.88-3.28,8.33-8.2,8.33a8.53,8.53,0,1,1,0-17.06,8.18,8.18,0,0,1,5.72,2.23l-2.32,2.23a4.77,4.77,0,0,0-3.4-1.32,5.39,5.39,0,0,0,0,10.78,4.61,4.61,0,0,0,4.84-3.68H144.4V61.26Zm8.24.28V59.07h-2.49v2.47h-2.48V64h2.48v2.48h2.49V64h2.47V61.54Z"/><path class="cls-5" d="M201.8,54.61H184.49a2,2,0,0,0-2,2v12a2,2,0,0,0,2,2H201.8a2,2,0,0,0,2-2v-12A2,2,0,0,0,201.8,54.61Zm0,2v1.7c-.93.76-2.42,1.94-5.6,4.43-.7.55-2.09,1.88-3.06,1.86s-2.35-1.31-3-1.86c-3.18-2.49-4.67-3.67-5.6-4.43v-1.7Zm-17.31,12V60.87c.95.76,2.3,1.83,4.36,3.44.91.72,2.51,2.3,4.29,2.29s3.36-1.55,4.29-2.29c2.07-1.61,3.42-2.68,4.37-3.44V68.6Z"/><g id="FB"><path class="cls-1" d="M20,3A17,17,0,1,1,3,20,17,17,0,0,1,20,3m0-3A20,20,0,1,0,40,20,20,20,0,0,0,20,0Z"/><path class="cls-1" d="M17.66,31.77V21.37H14.18V17.24h3.48V14c0-3.53,2.16-5.46,5.32-5.46a28.35,28.35,0,0,1,3.18.17v3.69H24c-1.72,0-2.05.82-2.05,2v2.85H25.8l-.53,4.13H21.93v10.4"/><path class="cls-6" d="M20,45.62a17,17,0,1,1-17,17,17,17,0,0,1,17-17m0-3a20,20,0,1,0,20,20,20,20,0,0,0-20-20Z"/><path class="cls-6" d="M17.66,74.4V64H14.18V59.87h3.48V56.61c0-3.54,2.16-5.46,5.32-5.46a29.28,29.28,0,0,1,3.18.16V55H24c-1.72,0-2.05.81-2.05,2v2.85H25.8L25.27,64H21.93V74.4"/></g><g id="Twitter"><path class="cls-1" d="M63.27,3a17,17,0,1,1-17,17,17,17,0,0,1,17-17m0-3a20,20,0,1,0,20,20,20,20,0,0,0-20-20Z"/><path class="cls-2" d="M63.27,45.62a17,17,0,1,1-17,17,17,17,0,0,1,17-17m0-3a20,20,0,1,0,20,20,20,20,0,0,0-20-20Z"/></g><g id="Insta"><path class="cls-1" d="M106.56,3a17,17,0,1,1-17,17,17,17,0,0,1,17-17m0-3a20,20,0,1,0,20,20,20,20,0,0,0-20-20Z"/><path class="cls-3" d="M106.56,45.62a17,17,0,1,1-17,17,17,17,0,0,1,17-17m0-3a20,20,0,1,0,20,20,20,20,0,0,0-20-20Z"/></g><g id="G_" data-name="G+"><path class="cls-1" d="M149.85,3a17,17,0,1,1-17,17,17,17,0,0,1,17-17m0-3a20,20,0,1,0,20,20,20,20,0,0,0-20-20Z"/><path class="cls-4" d="M149.85,45.62a17,17,0,1,1-17,17,17,17,0,0,1,17-17m0-3a20,20,0,1,0,20,20,20,20,0,0,0-20-20Z"/></g><g id="Mail"><path class="cls-1" d="M193.14,3a17,17,0,1,1-17,17,17,17,0,0,1,17-17m0-3a20,20,0,1,0,20,20,20,20,0,0,0-20-20Z"/><path class="cls-5" d="M193.14,45.62a17,17,0,1,1-17,17,17,17,0,0,1,17-17m0-3a20,20,0,1,0,20,20,20,20,0,0,0-20-20Z"/></g><g id="PLaforms"><path class="cls-1" d="M245.86,21a6.91,6.91,0,0,1,3.7-6.26,8,8,0,0,0-6.26-3.3c-2.62-.2-5.49,1.53-6.54,1.53s-3.65-1.45-5.64-1.45c-4.12.06-8.5,3.29-8.5,9.84a18.4,18.4,0,0,0,1.06,6c.95,2.71,4.36,9.36,7.92,9.25,1.86,0,3.18-1.33,5.6-1.33s3.57,1.33,5.64,1.33c3.59-.06,6.68-6.1,7.58-8.82A7.34,7.34,0,0,1,245.86,21ZM241.68,8.84a7,7,0,0,0,1.78-5.35,7.8,7.8,0,0,0-5,2.58,7.08,7.08,0,0,0-1.89,5.31A6.23,6.23,0,0,0,241.68,8.84Z"/><path class="cls-1" d="M269.64,17.19V25a1.85,1.85,0,0,1-1.86,1.87,2,2,0,0,1-2-1.87V17.19a2,2,0,0,1,2-1.86A1.87,1.87,0,0,1,269.64,17.19Zm.73,10.62a2,2,0,0,0,2,2h1.35l0,4.13a1.87,1.87,0,1,0,3.73,0V29.81H280v4.13a1.88,1.88,0,0,0,3.75,0V29.81h1.37a2,2,0,0,0,2-2V15.67H270.37ZM287.14,15H270.29a7.6,7.6,0,0,1,4.3-6.73L273.3,5.9c-.19-.33.29-.54.46-.25l1.31,2.41a9.1,9.1,0,0,1,7.32,0l1.31-2.41a.26.26,0,1,1,.45.26l-1.29,2.38A7.62,7.62,0,0,1,287.14,15ZM275.6,11.26a.72.72,0,0,0-.71-.71.71.71,0,0,0,0,1.42A.71.71,0,0,0,275.6,11.26Zm7.67,0a.7.7,0,1,0-.69.71A.71.71,0,0,0,283.27,11.26Zm6.41,4.07a1.86,1.86,0,0,0-1.86,1.86V25a1.87,1.87,0,0,0,1.86,1.87,2,2,0,0,0,2-1.87V17.19A2,2,0,0,0,289.68,15.33Z"/><path class="cls-1" d="M313,9.85l11.46-1.58V19.34H313Zm0,20.26,11.46,1.58V20.75H313Zm12.72,1.75L341,34V20.75H325.75Zm0-23.76V19.34H341V6L325.75,8.1Z"/><path class="cls-5" d="M245.86,63.6a6.93,6.93,0,0,1,3.7-6.27A8,8,0,0,0,243.3,54c-2.62-.21-5.49,1.53-6.54,1.53s-3.65-1.46-5.64-1.46c-4.12.07-8.5,3.29-8.5,9.84a18.35,18.35,0,0,0,1.06,6c.95,2.71,4.36,9.36,7.92,9.25,1.86,0,3.18-1.32,5.6-1.32s3.57,1.32,5.64,1.32c3.59,0,6.68-6.09,7.58-8.81a7.34,7.34,0,0,1-4.56-6.79Zm-4.18-12.13a7,7,0,0,0,1.78-5.36,7.85,7.85,0,0,0-5,2.58A7.08,7.08,0,0,0,236.55,54,6.19,6.19,0,0,0,241.68,51.47Z"/><path class="cls-7" d="M269.64,59.81v7.84a1.85,1.85,0,0,1-1.86,1.87,2,2,0,0,1-2-1.87V59.81a2,2,0,0,1,2-1.86A1.87,1.87,0,0,1,269.64,59.81Zm.73,10.62a2,2,0,0,0,2,2h1.35l0,4.14a1.87,1.87,0,0,0,3.73,0V72.43H280v4.14a1.88,1.88,0,0,0,3.75,0V72.43h1.37a2,2,0,0,0,2-2V58.3H270.37Zm16.77-12.79H270.29a7.6,7.6,0,0,1,4.3-6.72l-1.29-2.39c-.19-.33.29-.54.46-.26l1.31,2.41a9.14,9.14,0,0,1,7.32,0l1.31-2.4a.26.26,0,1,1,.45.26l-1.29,2.38A7.62,7.62,0,0,1,287.14,57.64ZM275.6,53.89a.71.71,0,0,0-.71-.71.7.7,0,0,0-.69.71.71.71,0,0,0,.69.71A.72.72,0,0,0,275.6,53.89Zm7.67,0a.7.7,0,1,0-1.4,0,.7.7,0,1,0,1.4,0ZM289.68,58a1.86,1.86,0,0,0-1.86,1.86v7.84a1.87,1.87,0,0,0,1.86,1.87,2,2,0,0,0,2-1.87V59.81A2,2,0,0,0,289.68,58Z"/><path class="cls-8" d="M313,52.47l11.46-1.58V62H313Zm0,20.27,11.46,1.58V63.38H313Zm12.72,1.75L341,76.59V63.38H325.75Zm0-23.77V62H341V48.62l-15.25,2.1Z"/></g></svg>